<svg width="208" height="146" viewBox="0 0 208 146" fill="none" xmlns="http://www.w3.org/2000/svg">
<path fill-rule="evenodd" clip-rule="evenodd" d="M53.2465 32.3012C48.4299 34.5901 42.8194 36 35.8183 36C28.6475 36 22.9611 34.6134 18.1087 32.2889C13.573 30.1162 10.1142 27.2608 7.49811 25.1012C7.42178 25.0382 7.34617 24.9758 7.27127 24.914C3.41422 21.7319 2.89309 16.0568 6.1073 12.2383C9.32151 8.41985 15.0539 7.90393 18.911 11.086C21.7235 13.4064 23.6507 14.9472 26.028 16.0861C28.2211 17.1366 31.171 18 35.8183 18C40.1809 18 43.0931 17.1599 45.3787 16.0738C47.858 14.8956 49.9345 13.2943 52.8665 10.9722C52.9426 10.9119 53.0194 10.8511 53.0968 10.7897C55.8167 8.63442 59.3496 5.83483 63.8446 3.69879C68.6612 1.40993 74.2717 0 81.2728 0C88.4436 0 94.13 1.38663 98.9824 3.71107C103.518 5.88385 106.977 8.7392 109.593 10.8988C109.669 10.9618 109.745 11.0242 109.82 11.086C112.632 13.4064 114.56 14.9472 116.937 16.0861C119.13 17.1366 122.08 18 126.727 18C131.09 18 134.002 17.1599 136.288 16.0738C138.767 14.8956 140.843 13.2943 143.775 10.9722C143.852 10.9119 143.928 10.8511 144.006 10.7897C146.726 8.63442 150.258 5.83483 154.753 3.69879C159.57 1.40993 165.181 0 172.182 0C179.352 0 185.039 1.38663 189.891 3.71107C194.427 5.88384 197.886 8.73917 200.502 10.8988L200.729 11.086C204.586 14.2681 205.107 19.9432 201.893 23.7617C198.679 27.5802 192.946 28.0961 189.089 24.914C186.276 22.5936 184.349 21.0528 181.972 19.9139C179.779 18.8634 176.829 18 172.182 18C167.819 18 164.907 18.8401 162.621 19.9262C160.142 21.1044 158.065 22.7057 155.133 25.0278L154.903 25.2102C152.183 27.3656 148.65 30.1652 144.155 32.3012C139.339 34.5901 133.728 36 126.727 36C119.556 36 113.87 34.6134 109.018 32.2889C104.482 30.1162 101.023 27.2608 98.407 25.1012C98.3307 25.0382 98.2551 24.9758 98.1802 24.914C95.3676 22.5936 93.4405 21.0528 91.0631 19.9139C88.87 18.8634 85.9201 18 81.2728 18C76.9102 18 73.998 18.8401 71.7124 19.9262C69.2331 21.1044 67.1566 22.7057 64.2246 25.0278C64.1485 25.0881 64.0718 25.1489 63.9943 25.2102C61.2745 27.3656 57.7416 30.1652 53.2465 32.3012Z" fill="white"/>
<path fill-rule="evenodd" clip-rule="evenodd" d="M53.2465 87.3012C48.4299 89.5901 42.8194 91 35.8183 91C28.6475 91 22.9611 89.6134 18.1087 87.2889C13.573 85.1162 10.1142 82.2608 7.49811 80.1012C7.42178 80.0382 7.34617 79.9758 7.27127 79.914C3.41422 76.7319 2.89309 71.0568 6.1073 67.2383C9.32151 63.4198 15.0539 62.9039 18.911 66.086C21.7235 68.4064 23.6507 69.9472 26.028 71.0861C28.2211 72.1366 31.171 73 35.8183 73C40.1809 73 43.0931 72.1599 45.3787 71.0738C47.858 69.8956 49.9345 68.2943 52.8665 65.9722C52.9426 65.9119 53.0194 65.8511 53.0968 65.7897C55.8167 63.6344 59.3496 60.8348 63.8446 58.6988C68.6612 56.4099 74.2717 55 81.2728 55C88.4436 55 94.13 56.3866 98.9824 58.7111C103.518 60.8838 106.977 63.7392 109.593 65.8988C109.669 65.9618 109.745 66.0242 109.82 66.086C112.632 68.4064 114.56 69.9472 116.937 71.0861C119.13 72.1366 122.08 73 126.727 73C131.09 73 134.002 72.1599 136.288 71.0738C138.767 69.8956 140.843 68.2943 143.775 65.9722C143.852 65.9119 143.928 65.8511 144.006 65.7897C146.726 63.6344 150.258 60.8348 154.753 58.6988C159.57 56.4099 165.181 55 172.182 55C179.352 55 185.039 56.3866 189.891 58.7111C194.427 60.8838 197.886 63.7392 200.502 65.8988L200.729 66.086C204.586 69.2681 205.107 74.9432 201.893 78.7617C198.679 82.5802 192.946 83.0961 189.089 79.914C186.276 77.5936 184.349 76.0528 181.972 74.9139C179.779 73.8634 176.829 73 172.182 73C167.819 73 164.907 73.8401 162.621 74.9262C160.142 76.1044 158.065 77.7057 155.133 80.0278L154.903 80.2102C152.183 82.3656 148.65 85.1652 144.155 87.3012C139.339 89.5901 133.728 91 126.727 91C119.556 91 113.87 89.6134 109.018 87.2889C104.482 85.1162 101.023 82.2608 98.407 80.1012C98.3307 80.0382 98.2551 79.9758 98.1802 79.914C95.3676 77.5936 93.4405 76.0528 91.0631 74.9139C88.87 73.8634 85.9201 73 81.2728 73C76.9102 73 73.998 73.8401 71.7124 74.9262C69.2331 76.1044 67.1566 77.7057 64.2246 80.0278C64.1485 80.0881 64.0718 80.1489 63.9943 80.2102C61.2745 82.3656 57.7416 85.1652 53.2465 87.3012Z" stroke="white" stroke-width="8" stroke-linecap="round" stroke-linejoin="round"/>
<path fill-rule="evenodd" clip-rule="evenodd" d="M53.2465 142.198C48.4299 144.551 42.8194 146 35.8183 146C28.6475 146 22.9611 144.575 18.1087 142.186C13.573 139.953 10.1142 137.018 7.49811 134.798C7.42178 134.734 7.34617 134.67 7.27127 134.606C3.41422 131.336 2.89309 125.503 6.1073 121.578C9.32151 117.654 15.0539 117.123 18.911 120.394C21.7235 122.779 23.6507 124.362 26.028 125.533C28.2211 126.613 31.171 127.5 35.8183 127.5C40.1809 127.5 43.0931 126.637 45.3787 125.52C47.858 124.309 49.9345 122.664 52.8665 120.277C52.9426 120.215 53.0194 120.153 53.0968 120.089C55.8167 117.874 59.3496 114.997 63.8446 112.802C68.6612 110.449 74.2717 109 81.2728 109C88.4436 109 94.13 110.425 98.9824 112.814C103.518 115.047 106.977 117.982 109.593 120.202C109.669 120.266 109.745 120.33 109.82 120.394C112.632 122.779 114.56 124.362 116.937 125.533C119.13 126.613 122.08 127.5 126.727 127.5C131.09 127.5 134.002 126.637 136.288 125.52C138.767 124.309 140.843 122.664 143.775 120.277C143.852 120.215 143.928 120.153 144.006 120.089C146.726 117.874 150.258 114.997 154.753 112.802C159.57 110.449 165.181 109 172.182 109C179.352 109 185.039 110.425 189.891 112.814C194.427 115.047 197.886 117.982 200.502 120.202L200.729 120.394C204.586 123.664 205.107 129.497 201.893 133.422C198.679 137.346 192.946 137.877 189.089 134.606C186.276 132.221 184.349 130.638 181.972 129.467C179.779 128.387 176.829 127.5 172.182 127.5C167.819 127.5 164.907 128.363 162.621 129.48C160.142 130.691 158.065 132.336 155.133 134.723L154.903 134.911C152.183 137.126 148.65 140.003 144.155 142.198C139.339 144.551 133.728 146 126.727 146C119.556 146 113.87 144.575 109.018 142.186C104.482 139.953 101.023 137.018 98.407 134.798C98.3307 134.734 98.2551 134.67 98.1802 134.606C95.3676 132.221 93.4405 130.638 91.0631 129.467C88.87 128.387 85.9201 127.5 81.2728 127.5C76.9102 127.5 73.998 128.363 71.7124 129.48C69.2331 130.691 67.1566 132.336 64.2246 134.723C64.1485 134.785 64.0718 134.847 63.9943 134.911C61.2745 137.126 57.7416 140.003 53.2465 142.198Z" fill="white"/>
</svg>
