<svg width="202" height="42" viewBox="0 0 202 42" fill="none" xmlns="http://www.w3.org/2000/svg">
<path d="M0.744873 41V13.7H6.10087V19.316L5.16487 19.94C5.51154 18.7266 6.18754 17.6173 7.19287 16.612C8.19821 15.572 9.39421 14.74 10.7809 14.116C12.1675 13.4573 13.5889 13.128 15.0449 13.128C17.1249 13.128 18.8582 13.544 20.2449 14.376C21.6315 15.1733 22.6715 16.404 23.3649 18.068C24.0582 19.732 24.4049 21.8293 24.4049 24.36V41H19.0489V24.724C19.0489 23.164 18.8409 21.8813 18.4249 20.876C18.0089 19.836 17.3675 19.0906 16.5009 18.64C15.6342 18.1546 14.5595 17.9466 13.2769 18.016C12.2369 18.016 11.2835 18.1893 10.4169 18.536C9.55021 18.848 8.78754 19.2986 8.12887 19.888C7.50487 20.4773 7.00221 21.1706 6.62087 21.968C6.27421 22.7306 6.10087 23.5626 6.10087 24.464V41H3.44887C2.99821 41 2.54754 41 2.09687 41C1.64621 41 1.19554 41 0.744873 41Z" fill="#0F172B"/>
<path d="M41.2907 41.52C38.4827 41.52 35.9867 40.9306 33.8027 39.752C31.6533 38.5386 29.9547 36.892 28.7067 34.812C27.4933 32.732 26.8867 30.34 26.8867 27.636C26.8867 25.4866 27.2333 23.528 27.9267 21.76C28.62 19.992 29.5733 18.4666 30.7867 17.184C32.0347 15.8666 33.508 14.8613 35.2067 14.168C36.94 13.44 38.812 13.076 40.8227 13.076C42.5907 13.076 44.2373 13.4226 45.7627 14.116C47.288 14.7746 48.6053 15.6933 49.7147 16.872C50.8587 18.0506 51.7253 19.4546 52.3147 21.084C52.9387 22.6786 53.2333 24.4293 53.1987 26.336L53.1467 28.624H30.8387L29.6427 24.36H48.5187L47.7387 25.244V23.996C47.6347 22.852 47.2533 21.8293 46.5947 20.928C45.936 20.0266 45.104 19.316 44.0987 18.796C43.0933 18.276 42.0013 18.016 40.8227 18.016C38.9507 18.016 37.3733 18.38 36.0907 19.108C34.808 19.8013 33.8373 20.8413 33.1787 22.228C32.52 23.58 32.1907 25.2613 32.1907 27.272C32.1907 29.1786 32.5893 30.8426 33.3867 32.264C34.184 33.6506 35.3107 34.7253 36.7667 35.488C38.2227 36.2506 39.904 36.632 41.8107 36.632C43.1627 36.632 44.4107 36.4066 45.5547 35.956C46.7333 35.5053 47.9987 34.6906 49.3507 33.512L52.0547 37.308C51.2227 38.14 50.2 38.868 48.9867 39.492C47.808 40.116 46.5427 40.6186 45.1907 41C43.8733 41.3466 42.5733 41.52 41.2907 41.52Z" fill="#0F172B"/>
<path d="M73.8951 41L65.0551 29.508L64.2751 28.52L52.7831 13.7H59.5431L68.2271 25.036L69.1111 26.18L80.4471 41H73.8951ZM52.8351 41L63.5991 26.96L66.7711 30.756L59.1791 41H52.8351ZM69.4231 27.792L66.4591 24.048L73.1671 13.7H79.5111L69.4231 27.792Z" fill="#0F172B"/>
<path d="M85.2063 41V6.73196H90.5623V41H85.2063ZM79.5383 18.9V13.7H96.9063V18.9H79.5383Z" fill="#0F172B"/>
<path d="M105.371 41L96.0633 13.7L101.471 13.648L108.127 34.084L106.931 33.98L114.159 18.016H117.383L124.663 34.032L123.259 34.136L129.967 13.7H135.375L126.171 41H122.479L114.887 23.632L116.083 23.788L109.011 41H105.371Z" fill="#0F172B"/>
<path d="M138.017 41V13.7H143.373V41H138.017ZM140.617 7.66796C139.473 7.66796 138.589 7.37329 137.965 6.78396C137.341 6.19462 137.029 5.36263 137.029 4.28796C137.029 3.28263 137.341 2.46796 137.965 1.84396C138.624 1.21996 139.508 0.907959 140.617 0.907959C141.761 0.907959 142.645 1.20263 143.269 1.79196C143.893 2.38129 144.205 3.21329 144.205 4.28796C144.205 5.29329 143.876 6.10796 143.217 6.73196C142.593 7.35596 141.726 7.66796 140.617 7.66796Z" fill="#0F172B"/>
<path d="M148.486 41V13.7H153.842V19.316L152.906 19.94C153.252 18.7266 153.928 17.6173 154.934 16.612C155.939 15.572 157.135 14.74 158.522 14.116C159.908 13.4573 161.33 13.128 162.786 13.128C164.866 13.128 166.599 13.544 167.986 14.376C169.372 15.1733 170.412 16.404 171.106 18.068C171.799 19.732 172.146 21.8293 172.146 24.36V41H166.79V24.724C166.79 23.164 166.582 21.8813 166.166 20.876C165.75 19.836 165.108 19.0906 164.242 18.64C163.375 18.1546 162.3 17.9466 161.018 18.016C159.978 18.016 159.024 18.1893 158.158 18.536C157.291 18.848 156.528 19.2986 155.87 19.888C155.246 20.4773 154.743 21.1706 154.362 21.968C154.015 22.7306 153.842 23.5626 153.842 24.464V41H151.19C150.739 41 150.288 41 149.838 41C149.387 41 148.936 41 148.486 41Z" fill="#0F172B"/>
<path d="M187.68 41.52C185.184 41.52 182.948 40.9133 180.972 39.7C179.03 38.452 177.488 36.7706 176.344 34.656C175.2 32.5066 174.628 30.0626 174.628 27.324C174.628 24.5853 175.182 22.1586 176.292 20.044C177.436 17.8946 178.978 16.2133 180.92 15C182.861 13.752 185.062 13.128 187.524 13.128C188.876 13.128 190.176 13.3533 191.424 13.804C192.706 14.22 193.85 14.8093 194.856 15.572C195.861 16.3 196.641 17.1146 197.196 18.016C197.785 18.8826 198.08 19.7666 198.08 20.668L196.52 20.772V2.51996H201.876V41H196.52V34.5H197.56C197.56 35.332 197.282 36.164 196.728 36.996C196.173 37.7933 195.428 38.5386 194.492 39.232C193.59 39.9253 192.533 40.48 191.32 40.896C190.141 41.312 188.928 41.52 187.68 41.52ZM188.408 36.892C190.037 36.892 191.476 36.476 192.724 35.644C193.972 34.812 194.942 33.6853 195.636 32.264C196.364 30.808 196.728 29.1613 196.728 27.324C196.728 25.4866 196.364 23.8573 195.636 22.436C194.942 20.98 193.972 19.836 192.724 19.004C191.476 18.172 190.037 17.756 188.408 17.756C186.778 17.756 185.34 18.172 184.092 19.004C182.844 19.836 181.856 20.98 181.128 22.436C180.434 23.8573 180.088 25.4866 180.088 27.324C180.088 29.1613 180.434 30.808 181.128 32.264C181.856 33.6853 182.844 34.812 184.092 35.644C185.34 36.476 186.778 36.892 188.408 36.892Z" fill="#0F172B"/>
</svg>
