<svg viewBox="0 0 128 20" fill="none" xmlns="http://www.w3.org/2000/svg">
  <path
    d="M27.9033 9.26528V7.67927C27.9033 7.45168 28.0859 7.26914 28.3135 7.26914H29.5984C29.826 7.26914 30.0085 7.08659 30.0085 6.859V4.19431C30.0085 3.96673 30.1911 3.78418 30.4187 3.78418H32.557C32.7846 3.78418 32.9672 3.96673 32.9672 4.19431V6.859C32.9672 7.08659 33.1497 7.26914 33.3773 7.26914H35.5655C35.7931 7.26914 35.9756 7.45168 35.9756 7.67927V9.26528C35.9756 9.49287 35.7931 9.67542 35.5655 9.67542H33.3773C33.1497 9.67542 32.9672 9.85796 32.9672 10.0856V15.2656C32.9672 15.8014 33.062 16.2423 33.2564 16.5932C33.4484 16.944 33.8799 17.1195 34.5484 17.1195C34.75 17.1195 34.9657 17.0981 35.2004 17.0578C35.2549 17.0484 35.3071 17.0365 35.3569 17.0246C35.6034 16.9678 35.8381 17.155 35.85 17.4087L35.914 18.9141C35.9211 19.1014 35.8026 19.2745 35.62 19.3242C35.4256 19.3788 35.2099 19.4262 34.9728 19.4641C34.6053 19.5234 34.2545 19.5518 33.9202 19.5518C33.1189 19.5518 32.467 19.438 31.9644 19.2128C31.4618 18.9876 31.0659 18.677 30.7743 18.2859C30.4827 17.8923 30.2812 17.4419 30.1721 16.9322C30.063 16.4225 30.0085 15.8748 30.0085 15.2893V10.0832C30.0085 9.85559 29.826 9.67305 29.5984 9.67305H28.3135C28.0859 9.67305 27.9033 9.4905 27.9033 9.26291V9.26528Z"
    fill="white" />
  <path
    d="M44.1 6.91602C44.8847 6.91602 45.558 7.05352 46.1174 7.33089C46.6769 7.60589 47.1369 7.97098 47.4972 8.42142C47.8576 8.87186 48.1207 9.39105 48.2866 9.97661C48.4526 10.5622 48.5379 11.1643 48.5379 11.7807V18.8929C48.5379 19.1205 48.3554 19.303 48.1278 19.303H45.9396C45.712 19.303 45.5295 19.1205 45.5295 18.8929V12.684C45.5295 12.3331 45.5034 11.9704 45.4536 11.5934C45.4039 11.2165 45.2995 10.8751 45.1407 10.5646C44.9819 10.2564 44.7566 10.0003 44.4627 9.79881C44.1711 9.5973 43.7823 9.49773 43.2963 9.49773C42.8103 9.49773 42.393 9.59019 42.0422 9.77273C41.6913 9.95765 41.3997 10.2042 41.165 10.5124C40.9303 10.823 40.7549 11.1691 40.6387 11.5531C40.5225 11.9372 40.4633 12.3307 40.4633 12.7314V18.8905C40.4633 19.1181 40.2807 19.3007 40.0531 19.3007H37.865C37.6374 19.3007 37.4548 19.1181 37.4548 18.8905V0.759256C37.4548 0.531667 37.6374 0.349121 37.865 0.349121H40.0531C40.2807 0.349121 40.4633 0.531667 40.4633 0.759256V8.94772H40.5131C40.6292 8.69643 40.8023 8.44987 41.0275 8.20806C41.2527 7.96624 41.5159 7.74814 41.817 7.55611C42.118 7.36408 42.4594 7.20998 42.8458 7.09145C43.2299 6.97528 43.6472 6.91602 44.1 6.91602Z"
    fill="white" />
  <path
    d="M62.779 13.4354V13.8361C62.779 13.8361 62.779 13.8384 62.779 13.8408C62.779 14.0613 62.5893 14.2391 62.3689 14.2391H54.0808C53.8153 14.2391 53.6185 14.4904 53.6802 14.7488C53.7394 14.9882 53.8248 15.2158 53.9386 15.4316C54.1306 15.7919 54.3867 16.1001 54.7043 16.3585C55.022 16.6169 55.3824 16.8232 55.783 16.9725C56.1837 17.1219 56.6009 17.1978 57.0371 17.1978C57.7886 17.1978 58.424 17.0603 58.9432 16.7829C59.3438 16.5695 59.6876 16.2945 59.9792 15.9579C60.1238 15.7895 60.3727 15.7635 60.5458 15.901L61.9066 16.9915C62.0891 17.1361 62.1128 17.404 61.9611 17.5818C60.7876 18.9639 59.1542 19.6538 57.0608 19.6538C56.1244 19.6538 55.2638 19.5068 54.4791 19.2152C53.6944 18.9236 53.0116 18.5088 52.4356 17.973C51.8595 17.4396 51.4067 16.7829 51.0819 16.0053C50.7571 15.2277 50.5935 14.3458 50.5935 13.3596C50.5935 12.3733 50.7571 11.508 51.0819 10.7138C51.409 9.91965 51.8547 9.24399 52.4237 8.68213C52.9927 8.12264 53.6636 7.6888 54.4412 7.37824C55.2188 7.07004 56.058 6.91357 56.9613 6.91357C57.7958 6.91357 58.571 7.05108 59.2798 7.32845C59.991 7.60345 60.6051 8.01359 61.1219 8.55648C61.6387 9.09938 62.0465 9.7774 62.3381 10.5882C62.6296 11.399 62.7766 12.3473 62.7766 13.4331L62.779 13.4354ZM59.3367 12.0817C59.5762 12.0817 59.7729 11.8755 59.7445 11.636C59.7184 11.4108 59.6734 11.1927 59.607 10.9794C59.4979 10.6285 59.3272 10.3203 59.0925 10.0524C58.8578 9.78452 58.5615 9.57115 58.2035 9.41231C57.8432 9.25347 57.4212 9.17524 56.9375 9.17524C56.0343 9.17524 55.2709 9.44787 54.6427 9.99077C54.1448 10.4222 53.8224 10.9533 53.6778 11.5791C53.6185 11.8376 53.8153 12.0841 54.0785 12.0841H59.3343L59.3367 12.0817Z"
    fill="white" />
  <path
    d="M79.3005 6.91636C80.0852 6.91636 80.7585 7.05386 81.318 7.33124C81.8775 7.60624 82.3374 7.97133 82.6978 8.42177C83.0581 8.87221 83.3213 9.39139 83.4872 9.97696C83.6532 10.5625 83.7385 11.1647 83.7385 11.7811V18.8932C83.7385 19.1208 83.556 19.3034 83.3284 19.3034H81.1402C80.9126 19.3034 80.7301 19.1208 80.7301 18.8932V12.6345C80.7301 12.2837 80.704 11.9162 80.6542 11.5322C80.6044 11.1481 80.4954 10.802 80.3294 10.4914C80.1611 10.1832 79.9311 9.92718 79.6395 9.72566C79.3479 9.52415 78.9591 9.42458 78.4731 9.42458C77.9871 9.42458 77.6031 9.52415 77.2688 9.72566C76.9345 9.92718 76.6595 10.1856 76.4414 10.5033C76.2233 10.8209 76.0645 11.1765 75.9649 11.5677C75.8653 11.9613 75.8156 12.3501 75.8156 12.7341V18.8932C75.8156 19.1208 75.633 19.3034 75.4054 19.3034H73.2173C72.9897 19.3034 72.8071 19.1208 72.8071 18.8932V12.0324C72.8071 11.2809 72.6269 10.6574 72.269 10.1642C71.9086 9.67114 71.3444 9.42458 70.5763 9.42458C70.1258 9.42458 69.7323 9.52178 69.398 9.71381C69.0638 9.90584 68.7911 10.1524 68.5825 10.4535C68.3739 10.7546 68.215 11.1007 68.106 11.4942C67.9969 11.8878 67.9424 12.2837 67.9424 12.6843V18.8932C67.9424 19.1208 67.7599 19.3034 67.5323 19.3034H65.3441C65.1165 19.3034 64.934 19.1208 64.934 18.8932V7.67736C64.934 7.44977 65.1165 7.26723 65.3441 7.26723H67.3829C67.6105 7.26723 67.793 7.44977 67.793 7.67736V9.19699H67.8428C67.9756 8.89591 68.1558 8.61143 68.381 8.34354C68.6062 8.07564 68.8741 7.83383 69.1823 7.61572C69.4905 7.39762 69.8461 7.22693 70.2467 7.10128C70.6474 6.97563 71.0907 6.91399 71.5743 6.91399C72.5108 6.91399 73.2884 7.12262 73.9071 7.53986C74.3505 7.83857 74.7203 8.20603 75.0166 8.64225C75.1731 8.87221 75.5145 8.87695 75.6781 8.65173C76.0266 8.17521 76.4462 7.79353 76.9393 7.50193C77.6078 7.10839 78.3925 6.91162 79.2958 6.91162L79.3005 6.91636Z"
    fill="white" />
  <path
    d="M97.9794 13.4354V13.8361C97.9794 13.8361 97.9794 13.8384 97.9794 13.8408C97.9794 14.0613 97.7898 14.2391 97.5693 14.2391H89.2813C89.0158 14.2391 88.819 14.4904 88.8806 14.7488C88.9399 14.9882 89.0252 15.2158 89.139 15.4316C89.3311 15.7919 89.5871 16.1001 89.9048 16.3585C90.2224 16.6169 90.5828 16.8232 90.9834 16.9725C91.3841 17.1219 91.8013 17.1978 92.2376 17.1978C92.9891 17.1978 93.6244 17.0603 94.1436 16.7829C94.5443 16.5695 94.888 16.2945 95.1796 15.9579C95.3242 15.7895 95.5732 15.7635 95.7462 15.901L97.107 16.9915C97.2896 17.1361 97.3133 17.404 97.1615 17.5818C95.988 18.9639 94.3546 19.6538 92.2613 19.6538C91.3248 19.6538 90.4643 19.5068 89.6796 19.2152C88.8948 18.9236 88.2121 18.5088 87.636 17.973C87.0599 17.4396 86.6071 16.7829 86.2823 16.0053C85.9575 15.2277 85.7939 14.3458 85.7939 13.3596C85.7939 12.3733 85.9575 11.508 86.2823 10.7138C86.6095 9.91965 87.0552 9.24399 87.6241 8.68213C88.1931 8.12264 88.864 7.6888 89.6416 7.37824C90.4192 7.07004 91.2584 6.91357 92.1617 6.91357C92.9962 6.91357 93.7714 7.05108 94.4803 7.32845C95.1915 7.60345 95.8055 8.01359 96.3223 8.55648C96.8391 9.09938 97.2469 9.7774 97.5385 10.5882C97.8301 11.399 97.9771 12.3473 97.9771 13.4331L97.9794 13.4354ZM94.5372 12.0817C94.7766 12.0817 94.9734 11.8755 94.9449 11.636C94.9188 11.4108 94.8738 11.1927 94.8074 10.9794C94.6984 10.6285 94.5277 10.3203 94.293 10.0524C94.0583 9.78452 93.7619 9.57115 93.4039 9.41231C93.0436 9.25347 92.6216 9.17524 92.138 9.17524C91.2347 9.17524 90.4714 9.44787 89.8431 9.99077C89.3453 10.4222 89.0229 10.9533 88.8782 11.5791C88.819 11.8376 89.0157 12.0841 89.2789 12.0841H94.5348L94.5372 12.0817Z"
    fill="white" />
  <path
    d="M107.036 10.207C106.872 10.3516 106.625 10.3397 106.471 10.1833C106.239 9.95329 105.959 9.74704 105.627 9.56212C105.16 9.30372 104.651 9.17333 104.098 9.17333C103.612 9.17333 103.171 9.2729 102.771 9.47441C102.37 9.67592 102.168 10.0102 102.168 10.4772C102.168 10.9443 102.389 11.2762 102.832 11.4682C103.276 11.6602 103.923 11.857 104.776 12.0585C105.227 12.1581 105.682 12.2932 106.142 12.4591C106.602 12.6275 107.019 12.8479 107.396 13.1229C107.773 13.3979 108.076 13.7417 108.311 14.1518C108.546 14.562 108.662 15.0598 108.662 15.643C108.662 16.3779 108.524 17.0014 108.247 17.5111C107.972 18.0209 107.605 18.4357 107.145 18.7534C106.685 19.0711 106.149 19.301 105.54 19.4433C104.93 19.5855 104.3 19.6566 103.648 19.6566C102.711 19.6566 101.801 19.486 100.914 19.1422C100.179 18.8577 99.5464 18.4737 99.0201 17.9877C98.8447 17.8265 98.8447 17.5491 99.0201 17.3855L100.381 16.1124C100.547 15.9583 100.803 15.9702 100.959 16.1314C101.249 16.4301 101.592 16.6861 101.995 16.8995C102.531 17.184 103.124 17.3262 103.776 17.3262C103.994 17.3262 104.214 17.3002 104.44 17.2504C104.665 17.2006 104.873 17.12 105.065 17.0133C105.257 16.9042 105.412 16.7596 105.53 16.5747C105.646 16.3898 105.706 16.1646 105.706 15.8967C105.706 15.3941 105.476 15.0361 105.016 14.818C104.556 14.5999 103.866 14.3842 102.946 14.1661C102.496 14.0665 102.057 13.9361 101.63 13.7773C101.204 13.6184 100.824 13.4098 100.49 13.1514C100.156 12.893 99.8878 12.5706 99.6887 12.1865C99.4872 11.8025 99.3876 11.3259 99.3876 10.757C99.3876 10.0884 99.5251 9.51234 99.8001 9.02634C100.075 8.54271 100.44 8.14443 100.891 7.83624C101.341 7.52805 101.851 7.29809 102.42 7.14636C102.989 6.99701 103.572 6.92114 104.174 6.92114C105.044 6.92114 105.89 7.0705 106.718 7.37158C107.396 7.61813 107.958 7.97137 108.406 8.42892C108.569 8.59487 108.555 8.8675 108.38 9.0216L107.038 10.2093L107.036 10.207Z"
    fill="white" />
  <path
    d="M121.997 13.4354V13.8361C121.997 13.8361 121.997 13.8384 121.997 13.8408C121.997 14.0613 121.807 14.2391 121.587 14.2391H113.299C113.033 14.2391 112.837 14.4904 112.898 14.7488C112.958 14.9882 113.043 15.2158 113.157 15.4316C113.349 15.7919 113.605 16.1001 113.922 16.3585C114.24 16.6169 114.6 16.8232 115.001 16.9725C115.402 17.1219 115.819 17.1978 116.255 17.1978C117.007 17.1978 117.642 17.0603 118.161 16.7829C118.562 16.5695 118.906 16.2945 119.197 15.9579C119.342 15.7895 119.591 15.7635 119.764 15.901L121.125 16.9915C121.307 17.1361 121.331 17.404 121.179 17.5818C120.006 18.9639 118.372 19.6538 116.279 19.6538C115.343 19.6538 114.482 19.5068 113.697 19.2152C112.913 18.9236 112.23 18.5088 111.654 17.973C111.078 17.4396 110.625 16.7829 110.3 16.0053C109.975 15.2277 109.812 14.3458 109.812 13.3596C109.812 12.3733 109.975 11.508 110.3 10.7138C110.627 9.91965 111.073 9.24399 111.642 8.68213C112.211 8.12264 112.882 7.6888 113.659 7.37824C114.437 7.07004 115.276 6.91357 116.179 6.91357C117.014 6.91357 117.787 7.05108 118.498 7.32845C119.209 7.60345 119.823 8.01359 120.34 8.55648C120.857 9.09938 121.262 9.7774 121.556 10.5882C121.848 11.399 121.995 12.3473 121.995 13.4331L121.997 13.4354ZM118.555 12.0817C118.794 12.0817 118.991 11.8755 118.963 11.636C118.937 11.4108 118.891 11.1927 118.825 10.9794C118.716 10.6285 118.545 10.3203 118.311 10.0524C118.076 9.78452 117.78 9.57115 117.422 9.41231C117.061 9.25347 116.639 9.17524 116.156 9.17524C115.252 9.17524 114.489 9.44787 113.861 9.99077C113.363 10.4222 113.041 10.9533 112.896 11.5791C112.837 11.8376 113.033 12.0841 113.297 12.0841H118.552L118.555 12.0817Z"
    fill="white" />
  <path
    d="M123.777 4.36759C123.777 3.88397 123.958 3.46198 124.316 3.10163C124.673 2.74128 125.131 2.56348 125.681 2.56348C126.231 2.56348 126.696 2.73417 127.073 3.07792C127.45 3.42168 127.637 3.85078 127.637 4.36996C127.637 4.88915 127.45 5.31825 127.073 5.66201C126.696 6.00576 126.233 6.17645 125.681 6.17645C125.129 6.17645 124.673 5.99628 124.316 5.6383C123.955 5.27795 123.777 4.85833 123.777 4.37234V4.36759ZM124.614 7.26935H126.802C127.03 7.26935 127.213 7.4519 127.213 7.67949V18.893C127.213 19.1206 127.03 19.3031 126.802 19.3031H124.614C124.387 19.3031 124.204 19.1206 124.204 18.893V7.67712C124.204 7.44953 124.387 7.26698 124.614 7.26698V7.26935Z"
    fill="white" />
  <path
    d="M12.6618 0.379844C11.3484 -0.39064 9.65811 0.0479429 8.88525 1.36132L0.379111 15.844C-0.391373 17.1574 0.0472105 18.8477 1.36059 19.6206C1.79917 19.879 2.28043 19.9999 2.75457 19.9999C3.70049 19.9999 4.6227 19.5139 5.13477 18.6391L13.6433 4.1564C14.4138 2.84302 13.9752 1.1527 12.6618 0.379844Z"
    fill="white" />
  <path
    d="M13.193 8.57843C14.7286 5.89118 18.6034 5.89118 20.1389 8.57843L23.2459 14.0156C24.7697 16.6823 22.8442 20.0002 19.7729 20.0002H13.559C10.4877 20.0002 8.56222 16.6823 10.086 14.0156L13.193 8.57843Z"
    fill="white" />
</svg>
