<svg viewBox="0 0 62 62" fill="none" xmlns="http://www.w3.org/2000/svg">
  <g filter="url(#filter0_d_1424_190)">
    <rect x="4.2738" y="3.63599" width="53" height="53" rx="20" fill="#1D4ED8" shape-rendering="crispEdges" />
    <path
      d="M31.6591 19.8373C30.2473 19.0125 28.4303 19.482 27.5996 20.888L18.4559 36.3923C17.6277 37.7984 18.0991 39.6079 19.511 40.4353C19.9824 40.7119 20.4997 40.8414 21.0094 40.8414C22.0262 40.8414 23.0175 40.3211 23.568 39.3846L32.7142 23.8803C33.5424 22.4742 33.0709 20.6647 31.6591 19.8373Z"
      fill="white" />
    <path
      d="M32.201 28.5846C33.8401 25.701 37.9759 25.701 39.6149 28.5846L42.9312 34.4193C44.5576 37.2809 42.5025 40.8413 39.2243 40.8413H32.5917C29.3135 40.8413 27.2583 37.2809 28.8848 34.4193L32.201 28.5846Z"
      fill="white" />
  </g>
  <defs>
    <filter id="filter0_d_1424_190" x="0.273804" y="0.635986" width="61" height="61" filterUnits="userSpaceOnUse"
      color-interpolation-filters="sRGB">
      <feFlood flood-opacity="0" result="BackgroundImageFix" />
      <feColorMatrix in="SourceAlpha" type="matrix" values="0 0 0 0 0 0 0 0 0 0 0 0 0 0 0 0 0 0 127 0"
        result="hardAlpha" />
      <feOffset dy="1" />
      <feGaussianBlur stdDeviation="2" />
      <feComposite in2="hardAlpha" operator="out" />
      <feColorMatrix type="matrix" values="0 0 0 0 0.113725 0 0 0 0 0.305882 0 0 0 0 0.847059 0 0 0 0.32 0" />
      <feBlend mode="normal" in2="BackgroundImageFix" result="effect1_dropShadow_1424_190" />
      <feBlend mode="normal" in="SourceGraphic" in2="effect1_dropShadow_1424_190" result="shape" />
    </filter>
  </defs>
</svg>
