<svg width="200" height="200" viewBox="0 0 200 200" fill="none" xmlns="http://www.w3.org/2000/svg">
<rect width="200" height="200" rx="68" fill="#1D4ED8"/>
<path d="M104.383 49.0132C97.3934 44.9296 88.3977 47.2541 84.2847 54.215L39.0165 130.974C34.9161 137.935 37.2501 146.894 44.2397 150.99C46.5738 152.359 49.135 153 51.6583 153C56.6923 153 61.6001 150.424 64.3253 145.788L109.606 69.029C113.707 62.0681 111.373 53.1093 104.383 49.0132Z" fill="white"/>
<path d="M107.066 92.3195C115.18 78.0429 135.656 78.0429 143.771 92.3195L160.189 121.206C168.241 135.373 158.066 153 141.836 153H109C92.7703 153 82.5955 135.373 90.6477 121.206L107.066 92.3195Z" fill="white"/>
</svg>
