<svg viewBox="0 0 63 63" fill="none" xmlns="http://www.w3.org/2000/svg">
  <path
    d="M4.42578 31.135C4.42578 41.7075 10.57 50.8443 19.4795 55.174L6.7383 20.2646C5.25625 23.5865 4.42578 27.2627 4.42578 31.135Z"
    fill="#101827" />
  <path
    d="M49.1677 29.7875C49.1677 26.4864 47.982 24.2003 46.965 22.421C45.611 20.2208 44.3419 18.3576 44.3419 16.1574C44.3419 13.702 46.2041 11.4164 48.8272 11.4164C48.9456 11.4164 49.0579 11.4312 49.1733 11.4378C44.4212 7.08415 38.09 4.42603 31.1362 4.42603C21.8048 4.42603 13.5951 9.2137 8.81909 16.4654C9.44576 16.4842 10.0363 16.4974 10.538 16.4974C13.3318 16.4974 17.6565 16.1584 17.6565 16.1584C19.0963 16.0735 19.2661 18.1883 17.8277 18.3586C17.8277 18.3586 16.3808 18.5288 14.7707 18.6132L24.4975 47.5451L30.3428 30.0142L26.1813 18.6122C24.7429 18.5278 23.3803 18.3576 23.3803 18.3576C21.941 18.2732 22.1097 16.0725 23.5491 16.1574C23.5491 16.1574 27.9601 16.4964 30.5847 16.4964C33.378 16.4964 37.7032 16.1574 37.7032 16.1574C39.1441 16.0725 39.3133 18.1873 37.8745 18.3576C37.8745 18.3576 36.4245 18.5278 34.8174 18.6122L44.47 47.325L47.1342 38.4221C48.289 34.7276 49.1677 32.0741 49.1677 29.7875Z"
    fill="#101827" />
  <path
    d="M31.6048 33.4714L23.5908 56.7588C25.9836 57.4622 28.5142 57.8469 31.1362 57.8469C34.2467 57.8469 37.2296 57.3092 40.0061 56.3328C39.9345 56.2185 39.8694 56.097 39.8161 55.9649L31.6048 33.4714Z"
    fill="#101827" />
  <path
    d="M54.5733 18.3206C54.6881 19.1714 54.7532 20.0847 54.7532 21.0671C54.7532 23.7776 54.247 26.8245 52.7222 30.6343L44.5634 54.2235C52.5042 49.5929 57.8453 40.9898 57.8453 31.136C57.8459 26.4921 56.6596 22.1253 54.5733 18.3206Z"
    fill="#101827" />
  <path
    d="M31.1362 0C13.9681 0 0 13.9671 0 31.1351C0 48.3052 13.9681 62.2718 31.1362 62.2718C48.3037 62.2718 62.2738 48.3052 62.2738 31.1351C62.2733 13.9671 48.3037 0 31.1362 0ZM31.1362 60.8447C14.7554 60.8447 1.42766 47.5169 1.42766 31.1351C1.42766 14.7544 14.7549 1.42766 31.1362 1.42766C47.5164 1.42766 60.8431 14.7544 60.8431 31.1351C60.8431 47.5169 47.5164 60.8447 31.1362 60.8447Z"
    fill="#101827" />
</svg>
